<svg version="1" xmlns="http://www.w3.org/2000/svg" width="3413.333" height="3413.333" viewBox="0 0 2560.000000 2560.000000"><path d="M1224.5 781.7c-15.2.5-32.3 2.4-38.3 4.3-3.4 1.1-11.8 2.9-18.5 4-6.7 1.1-14.7 3.1-17.7 4.4-3 1.4-8.4 3.2-12 4.1-3.6.9-8.7 3.2-11.5 5-4.7 3.2-14.3 6.5-19 6.5-2.7 0-10.3 3.9-18.2 9.3-3.4 2.3-7.6 5.2-9.5 6.4-1.8 1.3-6.5 4.4-10.4 7.1-5.4 3.6-8.8 5.2-13.5 6.1-14 2.7-19.4 4.2-21.4 6.1-2.6 2.5-15.9 8.2-27.8 12-8.6 2.8-20.7 9.1-25.7 13.6-1.4 1.2-4 2.9-5.9 3.9-1.9.9-6.4 4.1-10 7.1-3.6 3-8.5 6.4-11 7.6l-4.4 2.1-4.1-2.3-4-2.3-1.7 2.2c-1 1.2-3.3 2.8-5.2 3.6-1.9.8-4.5 2.7-5.7 4.2-1.2 1.6-3.1 3.3-4.2 3.9-6.7 3.6-43.5 41.9-47.2 49.1-.9 1.8-2.5 3.7-3.6 4.3-1.1.6-2.7 2.5-3.6 4.3-.9 1.8-3 4.6-4.6 6.2-2.8 2.9-6 7.9-12.3 19.8-1.4 2.6-3.6 5.3-4.9 5.8-1.3.6-2.9 2.2-3.4 3.5-.6 1.2-2.7 4-4.6 6.1-1.9 2.1-4.5 6.4-5.9 9.5-1.4 3.1-3.1 6-3.9 6.4-.8.5-2.7 3.6-4.2 6.9-1.5 3.3-3.6 6.9-4.6 8-1 1.1-2.8 4.6-4 7.7-1.1 3.1-3.1 7.2-4.4 9.1-1.3 1.9-3.3 6.4-4.5 10-1.2 3.6-3.2 7.8-4.3 9.2-1.1 1.5-2.9 5.4-4 8.8-1 3.4-3 8-4.3 10.3-1.3 2.3-3.4 7.7-4.6 12-1.1 4.4-2.9 9.4-4 11.2-1 1.8-3.2 8.4-4.8 14.8-1.7 6.3-3.7 13-4.6 14.7-.9 1.8-2.5 8.1-3.6 14.2-1.2 6-3 13.7-4 17-3.2 9.9-3.7 12.3-5.4 28.5-.9 8.5-2.5 19.8-3.6 25.1-2.4 11.6-4 40.2-2.9 51.9.4 4.7 1.8 12.9 3.1 18.3 2 8.3 2.9 10.4 6.7 15 6.3 7.5 10.7 16.9 12.6 26.7 3.4 17.2 3.9 18.1 10.3 22.3 3.2 2 8.3 6.1 11.4 9.1 4.9 4.6 6.6 5.6 12.7 7 6.4 1.6 7.5 2.3 14.6 9.2 4.2 4.1 8.1 7.4 8.6 7.4.6 0 2.9 1.7 5.2 3.7 5.7 5.2 8 10.9 8.5 21.3.5 9.3-.6 15.2-5.2 28-3.6 9.9-3.6 16.7-.3 24 3 6.4 3.8 10.6 6.9 33.1l2.3 16.7-2.7 4c-1.6 2.2-4.3 5.7-6.2 7.8-1.9 2.2-3.5 4.3-3.6 4.9-.5 5.1.7 10.5 3.1 14.9 1.5 2.8 4.7 10.7 7 17.6 4.5 13.7 14.9 35.8 19 40.5 1.5 1.6 3.3 4 4.1 5.1 7.3 10.9 40.9 45.4 53.4 54.8 3.9 2.9 7.9 6.3 8.9 7.5 1.1 1.1 2.4 2.1 3.1 2.1.6 0 2.2 1.2 3.6 2.6 2.3 2.5 7.9 6.6 17.9 13 2.7 1.7 6.5 4.5 8.5 6.2 1.9 1.8 4.2 3.2 4.9 3.2.7 0 3.2 1.4 5.5 3 2.3 1.7 6.7 4.4 9.9 6.1 3.1 1.7 6.6 3.9 7.7 4.9 1.1.9 4.3 2.5 7 3.5 2.8 1 6.5 2.9 8.2 4.2 1.8 1.3 5.2 3.1 7.5 3.9 2.4.8 6.7 2.9 9.7 4.6 3 1.7 8.4 4.1 12 5.5 3.6 1.4 8 3.3 9.6 4.3 1.7 1 6.4 2.8 10.5 4 4.1 1.2 8.9 3 10.5 4 1.7 1 6.6 2.8 11 4 4.4 1.2 10.5 3.2 13.5 4.5 3 1.3 9.8 3.3 15 4.5 5.2 1.2 12.8 3.3 16.8 4.6 4.1 1.4 12.9 3.4 19.5 4.5 6.7 1.1 16.3 3.1 21.3 4.4 4.9 1.3 12.1 2.6 16 2.9 3.8.4 16.8 1.5 28.8 2.6 32.4 2.9 39.8 2.8 99.1-2 7.2-.6 18.4-2.4 25-3.9 6.6-1.6 16.9-3.6 23-4.6 6-.9 12.6-2.3 14.5-3.2 1.9-.8 8.9-2.7 15.6-4.3 6.6-1.6 15.4-4.2 19.5-5.8 4.1-1.6 9.9-3.5 12.9-4.2 3-.7 7.7-2.4 10.4-3.7 2.7-1.4 7.9-3.5 11.5-4.8 8-2.7 20.5-8.1 32.6-14.1 5-2.4 9.5-4.4 10.2-4.4.6 0 2.4-1.1 4-2.3 1.5-1.3 5.4-3.5 8.5-5 3.2-1.4 7.3-3.7 9.1-5.1 1.9-1.4 3.8-2.6 4.3-2.6s4.3-2.3 8.4-5c4.1-2.7 8-5 8.6-5 .7 0 2.2-1.1 3.5-2.5 1.3-1.4 4.2-3.5 6.4-4.7 2.2-1.1 5.8-3.5 8-5.3 2.2-1.8 5-3.7 6.2-4.4 1.2-.6 4.2-2.8 6.7-4.9 2.5-2 7.1-5.7 10.2-8.2 23.3-18.7 45.6-40.6 63.6-62.6 3.1-3.8 6.8-8.3 8.3-9.9 5.5-6.4 16.1-21.1 21.1-29.1 1.1-1.9 3-4.4 4.1-5.6 1.1-1.3 3.1-4.3 4.3-6.8 1.3-2.5 3.5-6.3 5.1-8.5 1.6-2.2 4.2-6.5 5.8-9.5 1.6-3 4.5-8.4 6.4-12 1.9-3.6 4.6-8.5 6-11.1 1.5-2.5 3.3-6.5 4.2-8.9.9-2.4 2.2-5.1 3-6 .8-.9 2.6-4.7 4-8.5 1.5-3.9 3.7-8.8 5-11 1.2-2.2 3.3-7.4 4.5-11.5 1.2-4.1 3-8.9 4.1-10.6 1-1.7 2.9-7.1 4.3-12 1.3-4.9 3.4-11.4 4.6-14.4 1.2-3 3.3-10.3 4.6-16.2 1.3-6 3.3-13 4.3-15.7 1.1-2.6 2.9-11.1 4.1-18.7 1.1-7.7 2.9-17.1 4-20.9 4.2-15.1 7.4-68.8 6-101-1.2-27.1-3.7-51.5-6-60-1.1-3.9-2.9-12.9-4-20.2-1.1-7.3-2.8-15.8-3.9-19-1.1-3.2-3.3-11.6-5-18.6-1.7-7-3.7-13.9-4.5-15.5-.8-1.5-2.6-7.2-4.1-12.7-1.5-5.5-3.7-11.8-5-14-1.2-2.2-3-6.9-4-10.5-.9-3.6-2.5-7.6-3.5-9-.9-1.4-2.6-5-3.8-8.1-2.1-5.7-11.5-26.2-13.3-28.9-.5-.8-2.5-4.7-4.4-8.5-4.8-9.6-16.3-29.4-21.4-36.8-1.4-2.1-3.7-5.5-5.1-7.6-6.2-9.5-16.7-24.1-23.5-32.8-15.7-20.1-50.5-54.6-71.4-70.8-2.9-2.2-6.9-5.4-8.9-7.1-2-1.7-5.7-4.3-8.2-5.8-6.5-4-14-9.1-17.6-12-1.7-1.4-4.3-3-5.7-3.5-1.4-.6-4.5-2.3-6.9-3.8-6.4-4.1-16.4-9.8-23.8-13.4-3.6-1.7-7.4-3.9-8.5-4.9-1.1-1-5.2-2.9-9-4.3-3.9-1.4-8.6-3.4-10.5-4.5-1.9-1.1-6.2-3.1-9.5-4.3-3.3-1.2-7.8-3.2-10-4.5-2.2-1.2-6.7-3-10-3.9-3.3-1-8.1-2.8-10.6-4.1-2.5-1.2-8.8-3.5-13.9-4.9-5.2-1.4-10.5-3.2-11.9-4-1.4-.7-6.2-1.8-10.6-2.5-4.4-.7-12.3-2.8-17.5-4.6-10.6-3.6-16.2-4.8-30-6.4-5.2-.7-13.1-2.1-17.4-3.1-4.4-1.1-11.8-2.5-16.5-3.1-7.5-.9-73.5-1.7-92.6-1.1zm39.8 53.9c2.3.8.9 3.9-2.4 5.1-2 .8-2.9 1.8-2.9 3.3 0 2.1.4 2.2 5 1.8 5.5-.6 7 .6 7 5.2 0 2.1-10.2 13-12.2 13-.5 0-2 1.2-3.3 2.6-3.7 4-3.5 11.1.4 16.8l3 4.3-4.4 4.3c-3.2 3.1-4.7 5.6-5.5 9-1.3 5.4-3.8 8.2-9.4 10.5-2.1.9-5.3 3.1-7 4.9-1.7 1.8-4 3.8-5.1 4.4-3.2 1.7-.8 2.7 6.9 2.7 5.7-.1 7.9-.5 10.9-2.4 3.5-2.1 4.3-2.2 13.8-1.5l10 .7 3.4-3.3c1.9-1.9 4.2-5.5 5.1-8.2 1.9-5.9 5.7-8.8 12.7-9.7 5.8-.7 6.5-1.9 5.2-8.8-.5-2.9-1.4-3.7-7.1-6.4-6.4-3.1-7.5-4.3-9.8-11.7-.9-2.7 5.2-9.6 9.9-11.2 1.8-.6 3.9-1.8 4.5-2.6.7-.7 2.3-1.4 3.6-1.4 1.4 0 3.1-1.2 4.4-3 1.2-1.7 2.7-2.9 3.4-2.7 2.1.7 3.4 4.7 2.6 8.2-.6 2.8-.3 3.9 2.2 6.9l3 3.6-2 3.3c-1.5 2.4-1.9 4.4-1.5 8.2.2 2.7.8 5.4 1.3 5.9s3.4 1.1 6.4 1.4c5.4.4 5.4.4 7.1-3.2 2.1-4.4 4.6-5.2 10.1-3.2 5.8 2 15-.1 17.9-4.1 1.5-2 4.8-2 8.8.2 1.9 1 4.2 1.5 5.1 1.2 2.6-1 5.8-9.1 5.4-13.9l-.3-4.2 4.5-1c5.7-1.2 12.8-1 14.5.4.8.6 1.6 2.4 2 3.8.4 2.1 1.5 3 4.5 4 2.2.6 5.4 1.2 7.1 1.2 1.7 0 4.4.9 5.9 2 4.4 3.1 16 7.7 21.5 8.5 7.8 1.1 27.4 6.4 31.5 8.5 2.1 1 5.9 2.4 8.6 3.1 6.6 1.6 7.8 2.9 11 11.5 2.3 6.4 2.9 7.3 4.8 6.9 1.1-.3 5-1.1 8.6-1.9l6.5-1.5 3.3 3.2c1.7 1.7 3.2 3.5 3.2 4.1 0 .8 6.3 15.2 10.6 24.1 2 4.1 5.7 10.7 7.7 13.6 1 1.3 1.7 3.2 1.7 4.3 0 3.4 3.2 9.4 5.7 10.5 2.7 1.2 16.2 11.8 17.9 14 .9 1.1.7 2.5-.7 5.5-1 2.3-1.9 6.2-1.9 8.8 0 4.5.3 5.1 6.8 11.7 6.7 6.8 6.8 6.9 9.9 5.6 3.2-1.4 4.3-3.7 4.3-9.7 0-4.6 1.7-5.8 3-2.2.6 1.4 2.5 4.4 4.4 6.5 3.2 3.8 5.6 9.6 5.6 13.6 0 1.1 1.2 3.8 2.6 5.9 5 7.3 7.6 16 7.3 24.4-.7 20.3-.3 25.4 2.5 29.4 2.3 3.4 2.6 4.8 2.4 11.2-.2 4.7.2 7.8 1 8.6.7.7 1.2 1.9 1.2 2.9 0 1.1.7 1.6 2.3 1.4 1.4-.1 3.7 1.3 6.3 3.8l4.1 3.9-1.8 5c-2.1 5.2-4.7 9.8-6.4 11-2 1.4-.5 8.2 2.3 10.5 1.5 1.3 2.3 2.3 1.9 2.3-.4 0 .5 1.1 2 2.4 1.5 1.3 2.5 2.7 2.1 3.1-1 1.1-15.2 1.8-20.2 1.1-3.7-.6-4.9-1.3-6.1-3.5-2-4-6.3-5.5-11.1-4.2-8.7 2.4-20.4.4-24.2-4.2-.8-.9-2.9-2.1-4.8-2.7-1.8-.6-4.4-2.6-5.6-4.3-1.2-1.8-4.4-5.4-7-8.2-4.2-4.4-5.1-4.9-8.5-4.7-8.9.6-10.5 2.9-7 10.5 2.4 5.1 7.9 11.8 22 27 3.9 4.3 8.4 9.1 9.9 10.7 2.2 2.5 3.4 3 7.5 3 3.9 0 5.6-.6 8.9-3.3 3.5-2.8 4.7-3.2 8.7-2.9 3.9.3 4.7.8 5.7 3.3.7 1.6 2.7 4.1 4.4 5.5 1.7 1.3 4.2 3.4 5.6 4.5 1.4 1.1 3.8 3 5.3 4.1 2.7 1.9 2.8 2.4 2.2 6.7-.3 2.5-1.7 6.2-3 8.1-1.3 1.9-3.5 6.1-4.9 9.2-1.4 3.2-2.9 5.8-3.4 5.8s-2.4 1.6-4.3 3.6-7 5.3-11.7 7.5c-5.2 2.5-10.4 5.9-13.7 9-3.7 3.4-7.8 6-13.3 8.3-4.4 1.9-9.4 4.3-11 5.5-1.7 1.1-7.4 3.3-12.9 4.7-5.4 1.4-11.6 3.6-13.8 4.7-2.2 1.1-7.1 2.5-11 3.1l-7 1.1-.3 5.1c-.4 6.5 2.1 9.8 8.8 11.8 4.4 1.3 6.4 1.2 22.7-1 9.8-1.4 19.4-3.1 21.5-3.9 4.2-1.6 5-1.1 6.6 4.5 1 4-.6 11-3.2 13.9-1.9 2.1-8.6 13.6-12.3 21.1-4.7 9.7-22.1 28.3-30.3 32.5-7.9 4-18 12.7-31.2 26.9-7.7 8.3-15.2 17.1-16.6 19.6-1.4 2.5-3.5 5.6-4.7 7-2.3 2.6-5.1 12.2-4.1 13.9.4.5.8 5.9 1 12 .3 10.4.5 11.3 3.6 16.1 3.1 4.8 3.2 5.5 2.6 11.3-.3 3.4-1 10.3-1.5 15.4-.8 8.5-1.2 9.8-5.1 15.5-3.5 5.2-5 6.6-9.6 8.6-6.1 2.5-17.4 9.5-22.5 13.9-1.9 1.6-5.1 3.9-7.1 5.2-2.5 1.5-4.5 3.8-5.8 6.9-1.9 4.1-2 5.5-1.2 13.7.9 8.5.8 9.2-1.4 13.2-2.3 4.1-7.1 8.3-9.3 8.3-.6 0-3.2 1-5.7 2.2-3.7 1.7-5 3-6.6 6.7-5.9 13.6-7 15-19.7 27.1-7 6.7-14.7 13.3-17.1 14.7-2.5 1.4-5.7 3.7-7.1 5-3.7 3.4-14.3 5.9-30.9 7.3-5.8.5-13 1.6-16 2.5-9.1 2.6-16.2 3-19.8 1.1-4.4-2.3-7.9-8.1-8.7-14.6-.5-4.3-1.6-6.8-5.3-11.9-2.6-3.5-6.7-8.5-9.2-11-9.5-9.6-11.5-13.2-15-27.4-4.7-18.7-8.9-26.8-21.7-41.8-2.4-2.7-4.6-6.2-4.9-7.7-.4-1.5-1.3-3.9-2-5.3-1.4-2.8-1.2-4.7 2.4-21.1 1.9-8.5 4.3-13.8 6.2-13.8.6 0 2.1-2.5 3.5-5.5l2.4-5.5-2-5.8c-1.1-3.1-2.4-8.8-3-12.6-.6-4.6-1.6-7.6-2.8-8.8-1.1-.9-2.9-4.3-4.1-7.4-1.1-3.2-3.4-7.3-5-9.1-1.7-1.8-3.3-4.5-3.6-5.9-.4-1.6-1.9-3-4-3.9-1.9-.8-4.2-2.8-5.2-4.5-.9-1.6-2.5-3-3.5-3s-3.1-1.2-4.6-2.8c-1.5-1.5-4.4-3.9-6.4-5.5-3-2.2-3.6-3.4-3.9-7l-.3-4.2-4 .3c-2.2.2-4.9 1.1-6 2.1-5.7 5.2-6.5 5.3-14.6 2.5-4.1-1.4-10-2.9-13.2-3.2-5.7-.5-5.9-.6-7.9-4.7-2.5-5.2-5-6.8-10.8-7.1-4.7-.2-8.7 1.3-10.9 4-.8.9-2 1.6-2.8 1.6-.8 0-2.9.6-4.6 1.4-1.8.8-5.9 1.7-9.2 2-18.8 1.9-20 1.9-23.6.1-1.9-1-6.6-2.4-10.6-3.1-8.2-1.4-18.1-5.5-23.7-9.8-5.1-3.9-14.8-8.4-19.8-9.3-2.3-.3-5.5-1.8-7.2-3.4-1.7-1.5-5.5-3.5-8.4-4.4-2.9-1-8.1-3.6-11.5-5.8-3.4-2.2-9.5-5.5-13.6-7.4-11.1-5.1-18.9-11.5-21.7-17.9-1.3-2.9-2.7-6.6-3-8.1-.4-1.5-1.9-4.2-3.3-5.9-1.5-1.6-3.2-4.3-3.8-6-3.4-9.5-6.3-20.6-6.3-24.2 0-2.3-.6-5.9-1.4-7.9-1.6-4-2.7-19.3-2.9-37.8-.1-12.1 1.5-25.9 3.8-31.8.8-2 1.5-5 1.5-6.5 0-5.8 13.6-45.1 16.9-48.6 1-1.2 2.8-3.9 3.9-6.1 1.1-2.2 3.2-5.1 4.7-6.5 1.5-1.4 3.6-4.3 4.7-6.4 1.1-2.2 2.7-4.6 3.4-5.4 1.8-1.7 1.8-3.3-.1-5.8-2.1-2.8-1.9-3.8 2.5-11.1 2.2-3.7 4-7.3 4-8 0-4.1 23.1-27.9 29.5-30.4 2.7-1.1 12.5-7.2 13.5-8.4.8-.9 3-1.5 5.6-1.5 3.3 0 4.4-.4 4.9-1.9.3-1.1 2.4-2.6 4.5-3.5 3.5-1.4 4-2 4.2-4.8.2-5.2-.3-9.2-1.4-10.5-.7-.8.3-2.1 3.4-4.2 6.3-4.4 6.8-5 6.8-7 0-5.5 7.9-7.1 35.8-7.1 12.1 0 21.1-.4 22.3-1 1.5-.8 1.9-2.1 1.9-6 0-4.7-.2-5-3.5-6.4-1.9-.8-3.8-2.2-4.1-3.1-.3-.8-1.4-1.5-2.3-1.5-2.7 0-5.8-2.8-6.4-5.7-.3-1.5.1-6.1.9-10.1 1.9-10.2 1.9-17.1-.2-17.9-1-.4-2.3.2-3.3 1.5-3.5 4.6-14.8 5.8-19.5 2.1-2.2-1.7-2.6-2.8-2.6-7.2.1-5.4.9-7.6 4.7-11.7 9.8-10.7 16.2-14.8 25.1-16.2 8.9-1.4 9.9-2 10.7-7 1.2-8.3 2.1-9.4 10-12.5 7.1-2.9 7.3-2.9 11.4-1.3 2.3.8 5.3 2.8 6.8 4.2 2.2 2.2 2.6 3.4 2.4 7-.5 6.5-.4 7 1.2 11.3.8 2.2 2.8 5.1 4.5 6.5 1.6 1.4 3.7 4.1 4.7 6 6 11.8 10.3 13.2 18 5.9 1.7-1.5 5-3.8 7.5-4.9 2.5-1.2 5.6-2.8 7-3.5 1.3-.8 4.8-1.7 7.7-2.1 7.1-.9 9.6-3.3 9.1-8.8-.5-4.6 1.1-8.7 4.3-11 2.9-2 1.9-3.1-4.9-5-8.7-2.4-9.5-3.6-9.1-14.7l.4-9.1 4.5-4c5.9-5.3 10.5-7.5 19.3-9.5 8.6-1.9 18.2-6.7 25.7-12.9 7.5-6.1 14.1-10.4 16-10.4 1 0 3.7-1.1 6.2-2.4 6.3-3.3 11.6-4.4 15.1-3zm-177.6 16.2l2.2 1.2-2.7 4.8c-3.3 5.6-7 7.7-16.7 9.2-11.1 1.8-19.5-.3-19.5-4.9 0-4.5 7.3-9.6 15.9-11.1 6.1-1.1 18-.6 20.8.8zM1339 862c0 .5-.4 1-1 1-.5 0-1-.5-1-1 0-.6.5-1 1-1 .6 0 1 .4 1 1zm145.7 637.7c-.3 1-.5.4-.5-1.2 0-1.7.2-2.4.5-1.8.2.7.2 2.1 0 3z"/><path d="M1203 894.2c-5.1 1.4-5.6 2.3-2.5 5 1.5 1.2 4 5 5.6 8.2l2.8 5.9 3.1-3.3c1.8-1.9 2.9-4 2.6-4.9-2.6-8.3-4.9-12.2-7-12-.6 0-2.7.5-4.6 1.1zM1497.1 982c-2.4 1.7-4.9 3-5.5 3-1.8.1-6.2 4.3-8.5 8-2.7 4.5-2.7 7.6.3 11.4 1.3 1.7 3.3 5 4.5 7.4 1.2 2.4 4.9 6.9 8.3 10 9.8 9.3 10.2 10.1 9.9 20.6l-.2 9.1 3.3 3.1c8.2 7.5 13.8 10.5 23 11.8 8.2 1.2 15-3.3 12.9-8.6-.5-1.3-2.4-6.7-4.1-12.2-2.6-8.3-3-10.7-2.4-15.7l.7-5.9-5.9-2.7c-3.3-1.4-7.2-3.7-8.9-5-1.6-1.4-4.5-3.4-6.4-4.6-2-1.2-4.6-4.3-5.9-7l-2.5-4.8 3.6-3.7c4.3-4.4 4.7-7.5 1.4-12.3-3.8-5.6-10.9-6.4-17.6-1.9zM1400.8 982.1c-1.9.7-3.5 2.7-5.4 6.7-3.8 8.1-5 9.2-10.1 9.2-4.5 0-6.9-1.7-11.3-7.9-.8-1.1-3.5-2.8-6-3.7-4.4-1.6-4.7-1.6-9.5.7-3.3 1.6-5.5 3.5-6.8 5.9-1 1.9-2.6 4.2-3.6 5-2.7 2.4-5.1 9.6-5.1 15.6 0 5.5 2.1 11.4 4.1 11.4 2.8 0 16.5-2.3 24.9-4.3 14-3.1 24.1-2.8 35.5 1.2 13.4 4.7 15.1 5.1 25.6 5.1 10.6 0 10.9-.1 12.9-6.3 1.8-5.8 1.4-6.2-21.7-17.8-5.6-2.8-10.9-6.1-11.7-7.4-.8-1.2-1.6-4.9-1.8-8.1l-.3-5.9-3.5-.2c-1.9-.1-4.7.3-6.2.8zM1221.8 998.7c-1.4.4-1.2 1 1.7 3.9 1.9 1.9 3.9 3.4 4.4 3.4.6 0 .8.6.5 1.3-.7 1.9 7.2 4.5 8.8 2.9 1.7-1.7-.3-3.4-4.9-4.1-3.4-.6-3.8-1-4.3-4.1-.5-3.6-2.1-4.4-6.2-3.3zM1180.8 1008.7c.6.2 1.8.2 2.5 0 .6-.3.1-.5-1.3-.5-1.4 0-1.9.2-1.2.5zM1242.4 1015.2c-1 1.5.5 2.5 6.3 3.8 7.7 1.8 9.2 2.6 8.7 4.7-.3 1 .2 3.6 1.1 5.7 1.3 3 1.9 3.6 2.6 2.5 1-1.6 1.2-7 .3-9.3-.3-.9-1.5-1.6-2.5-1.6-1.2 0-1.9-.7-1.9-1.9 0-1.1-.5-2.3-1.1-2.7-1.8-1.1-13-2.1-13.5-1.2zM1165 1016.1c-4.1.5-9.6.7-12.1.4-7.7-.9-9.8 1-6 5.4 1.6 1.8 2.5 2.1 6 1.5 4-.6 4.1-.6 5.6 3 .8 2 2 3.6 2.5 3.6.6 0 1 .6 1 1.4 0 .8.9 2.4 2 3.7l1.9 2.4.1-6.5c0-7.3 1.4-10.1 6.1-12.5 2.9-1.6 4-3.6 1.7-3.4-.7.1-4.7.6-8.8 1zM1196.5 1023.4c-1.8 1.3-1.8 1.6-.2 8.4 1.8 7.5 1.6 9.8-1.1 10.5-1.3.3-1 .7 1.1 1.5 1.8.8 2.7 1.9 2.8 3.4.1 1.8.3 1.5 1-1 .7-2.4 1.9-3.7 4.4-4.8 4.5-1.8 12.6-1.8 15.1.1 1 .8 3.6 1.5 5.7 1.5 3.4 0 3.7-.2 2.7-1.9-.5-1.1-1-3.1-1-4.4 0-2.3-.6-2.6-7.7-4.2-6-1.3-8.2-2.4-10.2-4.6-1.4-1.6-3.2-2.9-4.1-2.9-.8 0-2.4-.7-3.4-1.5-2.4-1.8-2.7-1.8-5.1-.1zM1307.8 1032.6c-3.7 1.6-3.7 1.6-2.3 4.4.8 1.6 2.1 5.7 2.9 9.1l1.5 6.1-4.7 5.1c-2.6 2.9-5.4 5.7-6.2 6.4-1.9 1.6-5.5 1.6-8.3.1-4.1-2.1-9.6-8.1-10.2-11-1-4.4-10.8-14.4-15.7-16l-4.1-1.3-4.8 4.7c-2.6 2.6-5 5.6-5.4 6.7-.3 1.1-1.9 2.5-3.5 3.2-2.7 1.3-4 3.5-7.9 13.2-1.5 3.7-4.6 4.7-15.6 4.7-5.2 0-9.7.4-10 1-.9 1.4 1 4.5 4.2 6.5 1.7 1.2 4.3 1.7 7.4 1.6 5.7-.2 7.8 1.7 6 5.5-1.5 3.4-1.5 3.4 2 3.4 4.8 0 6.9 1.6 6.9 5.4 0 3.9 1.4 4.6 9.8 4.6 4.2 0 5.8.5 7.6 2.3 1.3 1.3 2.5 2.8 2.7 3.4.2.5 2.3 1.3 4.6 1.6l4.2.7.6-4.7c1.4-10 2.3-10.8 15.2-12.3 10.9-1.3 18.7.1 26.7 5.1 4 2.5 7 3.3 16.5 4.6 7.2 1 14.3 2.6 18.9 4.4 8.7 3.5 9.2 3.5 16.8.8 7.5-2.6 11.4-2.6 19.3.1 10.8 3.8 15.6 1.5 21.4-10.2 4.6-9.4 5.7-13.1 5.7-18.7-.1-6.4-1.6-8.1-7.5-8.1-5.8 0-11 2.9-12 6.7l-.7 2.8-1.5-2.7c-2.1-3.3-15.3-8.1-18.8-6.8-5.2 2-14.2 2.3-19.2.6-7.9-2.6-17.1-9.1-19.1-13.4-.9-2-2.7-5-3.9-6.5-1.3-1.6-2.3-3.4-2.3-4 0-.7-.5-2.9-1-4.9-.9-3.1-1.7-3.9-4.8-4.8-4.9-1.3-7-1.2-11.4.6zM1595.6 1118.5c-.3 1-.3 2.2.3 2.8 1.2 1.2 2-.4 1.1-2.7-.6-1.9-.7-1.9-1.4-.1zM1404.5 1135.4c-1.4 2.1-1.4 2.7.3 6.7 1.1 2.4 2.7 5.1 3.6 5.9 1 .7 3.1 3.9 4.8 6.9 7.1 13.3 9.6 17.3 13 20.9 4.3 4.5 8.3 12.4 9.3 18.3 1 6.1 4.7 12.9 8.7 16 2.3 1.8 5 6 8.4 12.8 4.7 9.8 5.1 10.3 10.9 13.6 3.3 1.8 7.6 5 9.4 6.9 1.9 2 4 3.6 4.7 3.6.7 0 2.6 1.6 4.2 3.6 2.8 3.4 3.1 3.5 4 1.7 1.1-1.9.3-6.5-2.9-18.3-.6-2.5-1.6-6.1-2-8.1-1.3-5.2-18.1-26.5-24.6-31-5.1-3.5-7.5-7.4-10.2-16.4-1.9-6.2-2.9-7.6-9.4-14-4.1-3.8-8.1-8.3-9.1-9.8-5.6-9.1-17.9-21.7-21.1-21.7-.2 0-1.2 1.1-2 2.4zM1165.3 1354.5c0 2.2.2 3 .4 1.7.2-1.2.2-3 0-4-.3-.9-.5.1-.4 2.3zM1392.5 1358.9c-3.6 1.6-4.2 2.4-5.2 6.7-1 4.1-.9 5.3.4 7.3 1.3 2.1 2 2.3 6.1 1.7 4.5-.6 7.2-2 7.2-3.8 0-.5.9-2.7 1.9-4.9l1.9-4-2.6-2.4c-3.2-3-4.4-3-9.7-.6zM96 1280v397h614v-147H278v-184l184.3-.2 184.2-.3.3-71.3.2-71.2H278v-173h417V883H96v397zM1850 1280v397h614v-147h-432v-184h369v-143h-369v-173h418V883h-600v397z"/></svg>